<svg xmlns="http://www.w3.org/2000/svg" viewBox="0 0 79.02 120"><defs><style>.cls-1{fill:#f4eee6;}</style></defs><title>LogoNWhiteSv</title><g id="Layer_2" data-name="Layer 2"><g id="Layer_4" data-name="Layer 4"><path class="cls-1" d="M54.84,80.79a2.84,2.84,0,0,1,.27,1.1,14.11,14.11,0,0,1,0,1.63l.46,0,.51-5.78L53.23,78Z"/><path class="cls-1" d="M48.46,68.62h0a.55.55,0,0,1-.59-.55,29.38,29.38,0,0,0-.08-3.2,6.86,6.86,0,0,0-.63-2.56l-2.5-4.39a4,4,0,0,0-3.82-2L9,58.7a4.53,4.53,0,0,0-4.12,4.12l-4.62,53A3.87,3.87,0,0,0,4.49,120l17.3-1.51a4,4,0,0,0,3.63-3.64l2.79-32.61a.53.53,0,0,1,.48-.49h0a.54.54,0,0,1,.6.55,29.31,29.31,0,0,0,.08,3.2A5.31,5.31,0,0,0,30.13,88L45,114.1a4,4,0,0,0,3.82,2l17.88-1.57a4,4,0,0,0,3.64-3.63l4.59-52.63A4.54,4.54,0,0,0,70,53.37L53.45,54.81a4,4,0,0,0-3.64,3.63L49,68.13A.54.54,0,0,1,48.46,68.62Z"/><polygon class="cls-1" points="73.71 44.44 73.7 44.44 73.71 44.44 73.71 44.44"/><path class="cls-1" d="M74.34,44.49h-.1a3.07,3.07,0,0,1-.53-.06Z"/><path class="cls-1" d="M76.67,42.07a2.73,2.73,0,0,1,0,.5c0-.26,0-.51,0-.77A2.45,2.45,0,0,1,76.67,42.07Z"/><path class="cls-1" d="M7.58,50a3.52,3.52,0,0,1-.86.23Z"/><path class="cls-1" d="M73.75,25a5.12,5.12,0,0,1-3.56.43c-2.78-.7-3.82-5.16-4.06-10.26a3.62,3.62,0,0,0-6.51-2C57,16.61,54,19.12,51,18.16c-4.26-1.38-7.88-8.45-10.55-15.77a3.62,3.62,0,0,0-7,.61c-1.36,7.67-3.69,15.26-7.65,17.36-2.75,1.47-6.15-.49-9.33-3.5A3.62,3.62,0,0,0,10.48,20c.65,5.06.41,9.64-2.22,10.8a5,5,0,0,1-3.57.2A3.63,3.63,0,0,0,.23,35.7l4,10.79c.11.32.22.65.32,1s.13.44.19.66A3.4,3.4,0,0,0,8.3,50.25L9.14,50a196,196,0,0,1,31.52-5.61,198.69,198.69,0,0,1,33.16.14h0l.61.06a2.39,2.39,0,0,0,2.23-1.88l0-.75a2.33,2.33,0,0,0-1-1.73A2.35,2.35,0,0,1,76.71,42c.05-.63.12-1.25.23-1.86l2-11.31A3.63,3.63,0,0,0,73.75,25ZM20.32,33.71a2.84,2.84,0,1,1-3.61-3A2.82,2.82,0,0,1,20.32,33.71Zm22.23-8.62a4.42,4.42,0,0,1-3.32,4,4.48,4.48,0,1,1,3.32-4ZM62.69,30a2.83,2.83,0,1,1-3.61-3A2.83,2.83,0,0,1,62.69,30Z"/></g></g></svg>